<svg width="19" height="22" viewBox="0 0 19 22" fill="none" xmlns="http://www.w3.org/2000/svg">
<path d="M0.261 18L2.079 3.6H5.535L7.353 18H5.193L4.86 14.535H2.763L2.43 18H0.261ZM2.961 12.663H4.662L4.347 9.495L4.059 5.463H3.555L3.267 9.495L2.961 12.663Z" fill="white"/>
<path d="M11.81 18V3.6H14.672C15.812 3.6 16.643 3.837 17.165 4.311C17.687 4.779 17.951 5.556 17.957 6.642C17.957 6.984 17.957 7.29 17.957 7.56C17.957 7.83 17.951 8.094 17.939 8.352C17.909 8.946 17.783 9.417 17.561 9.765C17.339 10.113 16.997 10.365 16.535 10.521V10.917C17.015 11.073 17.366 11.328 17.588 11.682C17.816 12.03 17.939 12.51 17.957 13.122C17.969 13.452 17.975 13.758 17.975 14.04C17.975 14.316 17.969 14.622 17.957 14.958C17.915 16.038 17.642 16.815 17.138 17.289C16.634 17.763 15.812 18 14.672 18H11.81ZM13.916 16.137H14.672C15.062 16.137 15.353 16.035 15.545 15.831C15.743 15.627 15.845 15.327 15.851 14.931C15.857 14.631 15.86 14.346 15.86 14.076C15.86 13.8 15.857 13.515 15.851 13.221C15.845 12.645 15.749 12.237 15.563 11.997C15.377 11.757 15.071 11.637 14.645 11.637H13.916V16.137ZM13.916 9.774H14.663C15.053 9.774 15.347 9.648 15.545 9.396C15.743 9.144 15.842 8.778 15.842 8.298C15.854 7.992 15.86 7.698 15.86 7.416C15.86 7.134 15.854 6.84 15.842 6.534C15.842 6.18 15.743 5.913 15.545 5.733C15.347 5.553 15.056 5.463 14.672 5.463H13.916V9.774Z" fill="black"/>
</svg>
