<svg width="584" height="15" viewBox="0 0 584 15" fill="none" xmlns="http://www.w3.org/2000/svg">
<path d="M573.167 7.5C573.167 10.4455 575.555 12.8333 578.5 12.8333C581.445 12.8333 583.833 10.4455 583.833 7.5C583.833 4.55448 581.445 2.16667 578.5 2.16667C575.555 2.16667 573.167 4.55448 573.167 7.5ZM0.292893 6.79289C-0.0976311 7.18342 -0.0976311 7.81658 0.292893 8.20711L6.65685 14.5711C7.04738 14.9616 7.68054 14.9616 8.07107 14.5711C8.46159 14.1805 8.46159 13.5474 8.07107 13.1569L2.41421 7.5L8.07107 1.84315C8.46159 1.45262 8.46159 0.819457 8.07107 0.428932C7.68054 0.0384078 7.04738 0.0384078 6.65685 0.428932L0.292893 6.79289ZM578.5 6.5H1V8.5H578.5V6.5Z" fill="#333333"/>
</svg>
