<svg width="40" height="40" viewBox="0 0 40 40" fill="none" xmlns="http://www.w3.org/2000/svg">
<path opacity="0.7" d="M22.4883 30.3965L16.9668 39.96H5.9248L0.40332 30.3965L5.92383 20.833H16.9668L22.4883 30.3965ZM1.55762 30.3965L6.50098 38.959H16.3896L21.334 30.3955L16.3896 21.833H6.50098L1.55762 30.3965ZM39.9521 20.3135L34.4307 29.8779L23.3877 29.877L17.8662 20.3135L23.3877 10.75H34.4307L39.9521 20.3135ZM19.0205 20.3135L23.9648 28.877H33.8535L38.7969 20.3135L33.8535 11.75H23.9648L19.0205 20.3135ZM16.6953 1.03027L16.6973 1.03125L22.2188 10.5947H22.2178L17.0566 19.9502L6.37402 19.7422L0.852539 10.1787L6.01367 0.823242L16.6953 1.03027ZM2.00098 10.168L6.95703 18.7529L16.4717 18.9385L21.0693 10.6045L16.1133 2.01953L6.59766 1.83496L2.00098 10.168Z" fill="white"/>
</svg>
